<mxfile host="app.diagrams.net" modified="2023-10-02T13:52:33.485Z" agent="Mozilla/5.0 (Windows NT 10.0; Win64; x64) AppleWebKit/537.36 (KHTML, like Gecko) Chrome/117.0.0.0 Safari/537.36 Edg/117.0.2045.47" version="21.3.7" etag="FS5B_PINWA8iXMe9qrHE" type="github">
  <diagram name="第 1 页" id="EXOQ1EmHPpbsOu0PH8bB">
    <mxGraphModel>
      <root>
        <mxCell id="0" />
        <mxCell id="1" parent="0" />
      </root>
    </mxGraphModel>
  </diagram>
</mxfile>
